<svg width="109" height="37" viewBox="0 0 109 37" fill="none" xmlns="http://www.w3.org/2000/svg">
<path d="M24.7388 11.5712L20.4658 5.0375C20.3935 4.91739 20.3524 4.78115 20.346 4.64112V1.21092C20.346 0.889761 20.2184 0.58176 19.9913 0.354669C19.7642 0.127578 19.4562 0 19.1351 0C18.8139 0 18.5059 0.127578 18.2788 0.354669C18.0518 0.58176 17.9242 0.889761 17.9242 1.21092V4.63676C17.9183 4.77726 17.8779 4.91414 17.8066 5.03532L13.5292 11.569C13.4983 11.6225 13.4839 11.6839 13.4878 11.7455C13.4917 11.8071 13.5136 11.8662 13.5509 11.9153L14.6399 13.4399C14.6549 13.4614 14.675 13.479 14.6983 13.4912C14.7216 13.5034 14.7475 13.5097 14.7738 13.5097C14.8001 13.5097 14.826 13.5034 14.8494 13.4912C14.8727 13.479 14.8927 13.4614 14.9078 13.4399L17.7935 9.41073C17.8654 9.31708 17.9242 9.33668 17.9242 9.45647V14.5223C17.9242 14.58 17.9012 14.6354 17.8604 14.6763C17.8195 14.7171 17.7641 14.7401 17.7064 14.7401H17.1902C17.1325 14.7401 17.0771 14.763 17.0362 14.8039C16.9954 14.8447 16.9724 14.9001 16.9724 14.9579V15.853C16.9724 15.9107 16.9954 15.9661 17.0362 16.007C17.0771 16.0478 17.1325 16.0708 17.1902 16.0708H21.0821C21.1399 16.0708 21.1953 16.0478 21.2361 16.007C21.277 15.9661 21.2999 15.9107 21.2999 15.853V14.9535C21.2999 14.8957 21.277 14.8403 21.2361 14.7995C21.1953 14.7587 21.1399 14.7357 21.0821 14.7357H20.5638C20.506 14.7357 20.4506 14.7128 20.4098 14.6719C20.369 14.6311 20.346 14.5757 20.346 14.5179V9.46082C20.346 9.34104 20.4048 9.32144 20.4767 9.41509L23.3624 13.429C23.3775 13.4505 23.3975 13.4681 23.4208 13.4803C23.4441 13.4925 23.47 13.4988 23.4964 13.4988C23.5226 13.4988 23.5486 13.4925 23.5719 13.4803C23.5952 13.4681 23.6152 13.4505 23.6303 13.429L24.7192 11.9044C24.7536 11.8564 24.7736 11.7996 24.7771 11.7406C24.7805 11.6817 24.7673 11.623 24.7388 11.5712Z" fill="#E4200E"/>
<path d="M12.682 12.1961L5.15078 14.2325C5.01491 14.2662 4.87284 14.2662 4.73697 14.2325L1.47012 13.1718C1.17674 13.1075 0.869938 13.1546 0.60929 13.3038C0.348642 13.453 0.152749 13.6938 0.0596485 13.9793C-0.0334521 14.2649 -0.0171156 14.5748 0.105486 14.849C0.228087 15.1232 0.448204 15.342 0.723094 15.463L3.98995 16.5215C4.11943 16.5761 4.23375 16.6613 4.32317 16.7697L9.21911 22.8679C9.25956 22.9147 9.31332 22.9481 9.37323 22.9637C9.43314 22.9793 9.49636 22.9762 9.5545 22.955L11.3339 22.3909C11.3588 22.3826 11.3815 22.3684 11.3998 22.3495C11.4181 22.3306 11.4316 22.3076 11.4391 22.2823C11.4465 22.2571 11.4478 22.2304 11.4428 22.2046C11.4377 22.1787 11.4265 22.1545 11.4101 22.1339L8.48297 18.1244C8.41546 18.0264 8.45248 17.9763 8.56573 18.0133L13.3898 19.5792C13.4441 19.5972 13.4892 19.6358 13.5153 19.6868C13.5414 19.7377 13.5464 19.7969 13.5292 19.8515L13.368 20.3437C13.3507 20.398 13.3554 20.4569 13.381 20.5078C13.4067 20.5587 13.4513 20.5975 13.5052 20.6159L14.3568 20.8925C14.4111 20.9098 14.47 20.9051 14.5209 20.8795C14.5718 20.8538 14.6106 20.8092 14.629 20.7553L15.8334 17.0529C15.8506 16.9983 15.8456 16.9391 15.8195 16.8882C15.7935 16.8372 15.7484 16.7986 15.694 16.7806L14.8425 16.504C14.7882 16.4867 14.7292 16.4914 14.6783 16.5171C14.6274 16.5427 14.5886 16.5873 14.5702 16.6412L14.4091 17.1356C14.3911 17.19 14.3525 17.2351 14.3015 17.2611C14.2506 17.2872 14.1914 17.2922 14.1368 17.275L9.31711 15.7113C9.20386 15.6742 9.20386 15.6111 9.31711 15.5719L14.0236 14.0691C14.0489 14.0621 14.0722 14.0491 14.0915 14.0312C14.1107 14.0132 14.1254 13.9909 14.1341 13.9661C14.1429 13.9413 14.1455 13.9147 14.1418 13.8887C14.1381 13.8626 14.1282 13.8379 14.1129 13.8165L13.0043 12.3137C12.9688 12.2638 12.919 12.2259 12.8614 12.2049C12.8039 12.1839 12.7413 12.1808 12.682 12.1961Z" fill="#E4200E"/>
<path d="M9.54142 23.8434L9.16029 31.6381C9.14771 31.7775 9.10054 31.9115 9.02308 32.028L7.00634 34.8048C6.81746 35.0647 6.73957 35.389 6.78981 35.7064C6.84005 36.0238 7.01429 36.3082 7.27422 36.497C7.53415 36.6859 7.85846 36.7638 8.17582 36.7136C8.49317 36.6633 8.77757 36.4891 8.96645 36.2292L10.981 33.4567C11.0687 33.3472 11.1815 33.2606 11.3099 33.204L18.6168 30.4316C18.6737 30.4068 18.722 30.3656 18.7554 30.3132C18.7888 30.2608 18.8057 30.1996 18.8041 30.1375L18.8171 28.2733C18.8167 28.2472 18.8102 28.2217 18.7981 28.1987C18.786 28.1756 18.7687 28.1558 18.7474 28.1407C18.7262 28.1256 18.7018 28.1158 18.676 28.112C18.6503 28.1081 18.624 28.1104 18.5993 28.1186L13.8907 29.6715C13.7775 29.7063 13.7404 29.6541 13.8101 29.5582L16.7895 25.4616C16.8231 25.4156 16.8734 25.3846 16.9296 25.3752C16.9857 25.3659 17.0433 25.3789 17.09 25.4115L17.5104 25.7186C17.557 25.7521 17.6149 25.7659 17.6716 25.7569C17.7283 25.7479 17.7791 25.7169 17.8131 25.6707L18.338 24.9454C18.3708 24.899 18.3842 24.8415 18.3752 24.7854C18.3663 24.7292 18.3357 24.6788 18.2901 24.6449L15.1321 22.3559C15.0857 22.3231 15.0282 22.3097 14.9721 22.3186C14.9159 22.3276 14.8655 22.3582 14.8316 22.4038L14.3045 23.1269C14.271 23.1735 14.2572 23.2314 14.2662 23.2881C14.2752 23.3448 14.3062 23.3956 14.3524 23.4296L14.7728 23.7345C14.819 23.7685 14.85 23.8193 14.859 23.876C14.8679 23.9327 14.8542 23.9906 14.8207 24.0372L11.8652 28.1317C11.7956 28.2275 11.7368 28.2101 11.7346 28.0903L11.7585 23.1486C11.7596 23.1219 11.7541 23.0953 11.7426 23.0711C11.7311 23.047 11.7139 23.026 11.6924 23.0099C11.671 22.9938 11.646 22.9832 11.6196 22.9789C11.5932 22.9746 11.5661 22.9768 11.5407 22.9853L9.7701 23.5733C9.70923 23.5901 9.65484 23.6248 9.61403 23.673C9.57323 23.7212 9.54793 23.7806 9.54142 23.8434Z" fill="#E4200E"/>
<path d="M19.6578 30.4316L26.9538 33.2019C27.0821 33.2584 27.195 33.3451 27.2827 33.4545L29.3016 36.2314C29.3951 36.3601 29.5131 36.4691 29.6487 36.5522C29.7844 36.6353 29.9351 36.6909 30.0922 36.7158C30.2493 36.7407 30.4098 36.7343 30.5645 36.6972C30.7192 36.66 30.8651 36.5928 30.9938 36.4993C31.1225 36.4057 31.2315 36.2878 31.3146 36.1521C31.3978 36.0165 31.4533 35.8658 31.4782 35.7086C31.5031 35.5515 31.4968 35.391 31.4596 35.2363C31.4225 35.0816 31.3552 34.9357 31.2617 34.807L29.2471 32.0345C29.1708 31.9175 29.1237 31.7838 29.1099 31.6447L28.7288 23.8434C28.7228 23.7821 28.699 23.7238 28.6603 23.6758C28.6216 23.6278 28.5697 23.5922 28.511 23.5734L26.7404 22.9853C26.715 22.9763 26.6877 22.9737 26.6611 22.9778C26.6344 22.9818 26.6092 22.9924 26.5876 23.0086C26.5661 23.0247 26.5488 23.046 26.5375 23.0705C26.5261 23.0949 26.521 23.1218 26.5226 23.1487L26.5443 28.0947C26.5443 28.2123 26.4834 28.2319 26.4137 28.1361L23.4365 24.0373C23.403 23.9907 23.3892 23.9327 23.3982 23.8761C23.4071 23.8194 23.4381 23.7685 23.4844 23.7345L23.9047 23.4296C23.95 23.3954 23.9802 23.3448 23.9887 23.2887C23.9972 23.2325 23.9835 23.1753 23.9505 23.1291L23.4256 22.4038C23.3916 22.3576 23.3408 22.3266 23.2841 22.3176C23.2274 22.3086 23.1694 22.3224 23.1229 22.3559L19.9736 24.6471C19.928 24.681 19.8974 24.7314 19.8884 24.7876C19.8795 24.8438 19.8929 24.9012 19.9257 24.9476L20.4527 25.6729C20.4867 25.7185 20.5371 25.7491 20.5933 25.758C20.6494 25.767 20.7069 25.7536 20.7533 25.7208L21.1736 25.4137C21.2202 25.3802 21.2782 25.3664 21.3348 25.3754C21.3915 25.3844 21.4424 25.4154 21.4764 25.4616L24.4514 29.5561C24.5211 29.6541 24.4862 29.7042 24.3708 29.6693L19.6796 28.1187C19.6551 28.1105 19.629 28.1082 19.6034 28.1119C19.5778 28.1156 19.5535 28.1253 19.5323 28.1401C19.5112 28.1549 19.4938 28.1745 19.4815 28.1972C19.4693 28.22 19.4625 28.2453 19.4618 28.2711L19.4749 30.1376C19.4734 30.1991 19.4899 30.2597 19.5224 30.3119C19.5549 30.3641 19.602 30.4057 19.6578 30.4316Z" fill="#E4200E"/>
<path d="M29.049 22.8462L33.9406 16.7698C34.0324 16.6637 34.1491 16.5821 34.2803 16.5324L37.5472 15.4718C37.7037 15.4272 37.8496 15.3516 37.9763 15.2494C38.1029 15.1471 38.2076 15.0204 38.2842 14.8768C38.3608 14.7332 38.4076 14.5757 38.4219 14.4136C38.4362 14.2515 38.4177 14.0881 38.3675 13.9333C38.3173 13.7785 38.2363 13.6355 38.1296 13.5127C38.0228 13.3898 37.8924 13.2898 37.7461 13.2185C37.5998 13.1472 37.4406 13.1062 37.2781 13.0978C37.1156 13.0894 36.953 13.1139 36.8002 13.1697L33.5333 14.2282C33.3974 14.2619 33.2554 14.2619 33.1195 14.2282L25.5861 12.1962C25.5256 12.1819 25.4622 12.1863 25.4042 12.2089C25.3463 12.2315 25.2966 12.2711 25.2616 12.3225L24.1552 13.8231C24.1399 13.8447 24.13 13.8696 24.1264 13.8957C24.1227 13.9219 24.1253 13.9486 24.1341 13.9736C24.1428 13.9985 24.1574 14.021 24.1766 14.0392C24.1958 14.0573 24.2191 14.0706 24.2445 14.0779L28.9575 15.5828C29.0686 15.622 29.0686 15.6852 28.9575 15.7222L24.14 17.286C24.0857 17.3033 24.0268 17.2986 23.9759 17.2729C23.925 17.2473 23.8862 17.2027 23.8678 17.1487L23.7066 16.6544C23.6886 16.6 23.65 16.5549 23.5991 16.5288C23.5481 16.5028 23.4889 16.4978 23.4343 16.515L22.5828 16.7916C22.5288 16.81 22.4843 16.8488 22.4586 16.8997C22.433 16.9506 22.4283 17.0095 22.4456 17.0638L23.6478 20.7663C23.6657 20.8206 23.7044 20.8657 23.7553 20.8918C23.8063 20.9179 23.8654 20.9228 23.92 20.9056L24.7716 20.629C24.8259 20.6111 24.871 20.5725 24.8971 20.5215C24.9232 20.4706 24.9282 20.4114 24.911 20.3568L24.7498 19.8624C24.7326 19.8078 24.7376 19.7487 24.7637 19.6977C24.7898 19.6468 24.8348 19.6081 24.8892 19.5902L29.7024 18.0264C29.8156 17.9894 29.8526 18.0395 29.7851 18.1375L26.8602 22.1209C26.8438 22.1415 26.8325 22.1657 26.8275 22.1916C26.8225 22.2174 26.8237 22.2441 26.8312 22.2693C26.8387 22.2945 26.8522 22.3176 26.8705 22.3365C26.8888 22.3554 26.9114 22.3696 26.9364 22.3779L28.7158 22.942C28.7745 22.9611 28.8377 22.9622 28.8971 22.9452C28.9565 22.9281 29.0094 22.8936 29.049 22.8462Z" fill="#E4200E"/>
<path d="M55.774 25.5426C55.2208 24.8152 54.3475 24.7673 53.938 24.7651H52.4353C52.1447 24.7547 51.8575 24.8305 51.6099 24.9829C51.4857 25.064 51.3791 25.1692 51.2964 25.2923C51.2138 25.4154 51.1567 25.5538 51.1286 25.6994L49.9351 32.4792C49.9351 32.5054 49.9351 32.5315 49.9351 32.5598C49.9375 32.6889 49.9875 32.8126 50.0754 32.9072C50.1634 33.0017 50.283 33.0606 50.4116 33.0724C50.5402 33.0843 50.6686 33.0483 50.7724 32.9714C50.8761 32.8946 50.9479 32.7821 50.9739 32.6557L51.2331 31.179H52.7162C53.7007 31.179 54.5174 30.9808 55.1599 30.2077C55.7457 29.5042 55.933 28.6832 56.068 27.9231C56.1361 27.5748 56.1747 27.2215 56.1835 26.8668C56.2003 26.3918 56.056 25.9252 55.774 25.5426ZM54.9508 27.9209C54.8179 28.6832 54.648 29.2385 54.3519 29.5935C54.1893 29.7797 53.9883 29.9285 53.7627 30.0297C53.5371 30.1308 53.2923 30.1819 53.0451 30.1794H51.4095L52.1718 25.8628C52.1892 25.804 52.1718 25.8345 52.2044 25.7996C52.2212 25.7896 52.2387 25.7809 52.2567 25.7735C52.2567 25.7735 52.2567 25.7735 52.272 25.7735H53.9729C54.2012 25.7699 54.4265 25.8262 54.6263 25.9368C54.7243 25.9931 54.81 26.0686 54.8781 26.1588C54.9462 26.249 54.9954 26.352 55.0226 26.4617C55.0554 26.6001 55.0707 26.742 55.0684 26.8842C55.0578 27.2324 55.0185 27.5792 54.9508 27.9209Z" fill="#959CAE"/>
<path d="M91.3088 25.5426C90.7556 24.8152 89.8801 24.7673 89.4706 24.7651H87.97C87.6801 24.7546 87.3936 24.8304 87.1468 24.9829C87.0216 25.063 86.9141 25.1679 86.8309 25.2911C86.7477 25.4144 86.6907 25.5533 86.6633 25.6994L85.4785 32.4814C85.4785 32.5076 85.4785 32.5337 85.4785 32.562C85.4783 32.6925 85.5269 32.8183 85.6147 32.9147C85.7025 33.0112 85.8232 33.0713 85.9531 33.0833C86.083 33.0953 86.2127 33.0583 86.3167 32.9796C86.4207 32.9009 86.4915 32.7861 86.5152 32.6578L86.7765 31.1812H88.2597C89.2441 31.1812 90.063 30.983 90.7033 30.2099C91.2892 29.5064 91.4765 28.6853 91.6093 27.9253C91.6792 27.5773 91.7185 27.2238 91.7269 26.869C91.7407 26.3924 91.5934 25.9251 91.3088 25.5426ZM90.4877 27.9209C90.3548 28.6832 90.185 29.2385 89.8888 29.5935C89.7262 29.7798 89.5252 29.9285 89.2996 30.0297C89.074 30.1308 88.8292 30.1819 88.582 30.1794H86.9377L87.7 25.8628C87.7174 25.804 87.7 25.8345 87.7327 25.7996L87.7849 25.7735C87.7849 25.7735 87.7958 25.7735 87.8002 25.7735H89.5011C89.7294 25.7699 89.9547 25.8262 90.1545 25.9368C90.2522 25.9932 90.3375 26.0688 90.4052 26.159C90.473 26.2492 90.5218 26.3522 90.5487 26.4617C90.5814 26.6001 90.5968 26.742 90.5944 26.8842C90.5886 27.2322 90.5529 27.579 90.4877 27.9209Z" fill="#959CAE"/>
<path d="M43.9284 25.2745C43.7868 25.1069 43.6089 24.9738 43.4081 24.8855C43.2073 24.7972 42.9889 24.7559 42.7697 24.7649H40.0778C39.945 24.7649 39.8176 24.8176 39.7236 24.9116C39.6297 25.0055 39.5769 25.1329 39.5769 25.2658C39.5769 25.3986 39.6297 25.5261 39.7236 25.62C39.8176 25.7139 39.945 25.7667 40.0778 25.7667H42.6456C42.7179 25.7613 42.7904 25.7733 42.8571 25.8017C42.9238 25.8301 42.9827 25.8741 43.0289 25.93C43.0832 26.0503 43.1085 26.1816 43.1029 26.3134C43.107 26.3634 43.107 26.4136 43.1029 26.4636L42.981 27.154H40.5896C40.1274 27.1333 39.6703 27.2582 39.2829 27.5112C38.7145 27.9315 38.538 28.5653 38.4488 29.0641C38.4073 29.2838 38.3855 29.5069 38.3834 29.7305C38.3704 29.9327 38.3977 30.1354 38.4639 30.3268C38.5301 30.5183 38.6338 30.6947 38.7689 30.8456C39.1435 31.1832 39.6226 31.1766 39.9602 31.181H42.247C42.5474 31.2078 42.848 31.131 43.0986 30.9632C43.3172 30.7665 43.4572 30.4972 43.4928 30.2053L44.12 26.6509C44.1523 26.4763 44.1698 26.2993 44.1723 26.1217C44.1845 25.8204 44.0989 25.5232 43.9284 25.2745ZM42.4474 30.1051C42.4481 30.1189 42.4481 30.1327 42.4474 30.1465C42.4474 30.1465 42.4474 30.1465 42.4343 30.1595C42.394 30.1774 42.3496 30.1841 42.3058 30.1791H39.9101C39.8454 30.1828 39.7808 30.1708 39.7217 30.1443C39.6626 30.1177 39.6107 30.0774 39.5704 30.0267C39.5154 29.916 39.4906 29.7928 39.4985 29.6695C39.5022 29.5013 39.5205 29.3337 39.553 29.1686C39.5762 28.8814 39.6771 28.6058 39.8448 28.3715C39.9131 28.3006 39.9955 28.2446 40.0866 28.2071C40.1777 28.1696 40.2755 28.1514 40.374 28.1537H42.7915L42.4474 30.1051Z" fill="#959CAE"/>
<path d="M97.1978 25.1437C96.7128 24.8754 96.1639 24.7444 95.6101 24.7647C94.9959 24.7647 94.1988 24.8432 93.515 25.3375C92.5676 26.0323 92.3411 27.1212 92.193 27.951C92.1057 28.372 92.0554 28.7997 92.0427 29.2295C92.0297 29.6153 92.1231 29.9973 92.3128 30.3337C92.4817 30.6074 92.7215 30.8304 93.0067 30.9791C93.2919 31.1279 93.612 31.1968 93.9331 31.1787H96.6468C96.7742 31.1703 96.8937 31.1137 96.981 31.0205C97.0682 30.9273 97.1168 30.8044 97.1168 30.6767C97.1168 30.549 97.0682 30.426 96.981 30.3328C96.8937 30.2396 96.7742 30.1831 96.6468 30.1747H94.0485C93.9246 30.1833 93.8002 30.1646 93.6843 30.1198C93.5684 30.075 93.4637 30.0052 93.3777 29.9155C93.2423 29.7586 93.1607 29.5624 93.1447 29.3558C93.1421 29.3035 93.1421 29.2512 93.1447 29.199C93.1514 28.9338 93.1783 28.6695 93.2253 28.4084H96.649C96.9342 28.4186 97.2155 28.3386 97.4526 28.1797C97.7168 27.9402 97.8848 27.6127 97.9252 27.2584C97.9569 27.0816 97.9736 26.9024 97.9753 26.7227C97.9891 26.4153 97.9251 26.1094 97.7892 25.8334C97.6533 25.5574 97.4499 25.3201 97.1978 25.1437ZM96.8167 27.2236C96.809 27.2785 96.7936 27.332 96.7709 27.3826C96.7383 27.4283 96.7535 27.4153 96.7339 27.4196H93.4039C93.4642 27.0514 93.6096 26.7024 93.8286 26.4004C94.3077 25.7905 94.8173 25.7818 95.4141 25.7753C95.6603 25.7654 95.9068 25.7859 96.148 25.8363C96.3577 25.8824 96.5416 26.0071 96.662 26.1847C96.7929 26.389 96.8582 26.6284 96.8493 26.8708C96.848 26.9891 96.8371 27.1071 96.8167 27.2236Z" fill="#959CAE"/>
<path d="M49.7107 25.512C49.2512 24.9044 48.5848 24.7628 47.9684 24.7672H45.6881C45.5553 24.7672 45.4279 24.82 45.3339 24.9139C45.24 25.0078 45.1872 25.1353 45.1872 25.2681C45.1872 25.401 45.24 25.5284 45.3339 25.6223C45.4279 25.7162 45.5553 25.769 45.6881 25.769H47.866C48.07 25.7611 48.2738 25.7906 48.4671 25.8561C48.5673 25.8923 48.6582 25.9501 48.7335 26.0254C48.8088 26.1007 48.8665 26.1916 48.9027 26.2917C48.9744 26.5018 49.0068 26.7233 48.9986 26.9451C48.999 27.0667 48.9917 27.1882 48.9768 27.3088H45.3179C45.185 27.3088 45.0576 27.3616 44.9637 27.4555C44.8697 27.5495 44.817 27.6769 44.817 27.8097C44.817 27.9426 44.8697 28.07 44.9637 28.1639C45.0576 28.2579 45.185 28.3106 45.3179 28.3106H48.7895C48.7054 28.692 48.5798 29.063 48.4149 29.417C48.0599 30.0704 47.4588 30.1727 46.9883 30.1771H44.6536C44.5208 30.1771 44.3934 30.2299 44.2994 30.3238C44.2055 30.4178 44.1527 30.5452 44.1527 30.678C44.1527 30.8109 44.2055 30.9383 44.2994 31.0322C44.3934 31.1262 44.5208 31.1789 44.6536 31.1789H46.6333C47.2693 31.1789 48.1753 31.1376 48.9332 30.3688C49.5365 29.7481 49.8044 28.8921 49.9873 27.8772C50.0528 27.5281 50.0885 27.174 50.094 26.8188C50.1186 26.3523 49.9834 25.8913 49.7107 25.512Z" fill="#959CAE"/>
<path d="M68.5453 25.512C68.0857 24.9044 67.4215 24.7628 66.8029 24.7672H64.5227C64.3898 24.7672 64.2624 24.82 64.1685 24.9139C64.0745 25.0078 64.0218 25.1353 64.0218 25.2681C64.0218 25.401 64.0745 25.5284 64.1685 25.6223C64.2624 25.7162 64.3898 25.769 64.5227 25.769H66.7006C66.9046 25.7608 67.1084 25.7903 67.3017 25.8561C67.4018 25.8923 67.4927 25.9501 67.568 26.0254C67.6433 26.1007 67.7011 26.1916 67.7373 26.2917C67.8087 26.5019 67.8418 26.7232 67.8353 26.9451C67.8346 27.0666 67.8274 27.1881 67.8135 27.3088H64.1524C64.0196 27.3088 63.8922 27.3616 63.7982 27.4555C63.7043 27.5495 63.6515 27.6769 63.6515 27.8097C63.6515 27.9426 63.7043 28.07 63.7982 28.1639C63.8922 28.2579 64.0196 28.3106 64.1524 28.3106H67.6197C67.534 28.6918 67.4077 29.0628 67.2429 29.417C66.8879 30.0704 66.2889 30.1727 65.8163 30.1771H63.4816C63.3488 30.1771 63.2214 30.2299 63.1274 30.3238C63.0335 30.4178 62.9807 30.5452 62.9807 30.678C62.9807 30.8109 63.0335 30.9383 63.1274 31.0322C63.2214 31.1262 63.3488 31.1789 63.4816 31.1789H65.4613C66.0995 31.1789 67.0033 31.1376 67.7634 30.3688C68.3645 29.7481 68.6346 28.8921 68.8153 27.8772C68.8824 27.5283 68.9188 27.1741 68.9242 26.8188C68.95 26.3528 68.8164 25.8919 68.5453 25.512Z" fill="#959CAE"/>
<path d="M63.0156 27.0061C63.0473 26.4451 62.8808 25.8908 62.5452 25.4402C61.968 24.7694 61.0446 24.7106 60.2823 24.7062C59.52 24.7019 58.577 24.7803 57.8191 25.4119C56.9806 26.1197 56.7062 27.2261 56.5842 27.9056C56.5225 28.2345 56.4904 28.5684 56.4884 28.903C56.4884 29.6566 56.6822 30.1684 56.9501 30.4951C57.6035 31.2421 58.6772 31.2486 59.2108 31.2552C59.7444 31.2617 60.8333 31.229 61.6784 30.5256C62.1793 30.1031 62.6889 29.3168 62.9219 27.9883C62.982 27.6643 63.0134 27.3356 63.0156 27.0061ZM61.8177 27.9622C61.7372 28.4435 61.5803 29.2864 61.0729 29.7437C60.5654 30.2011 59.899 30.2555 59.3044 30.2533C58.7099 30.2512 58.0478 30.1771 57.769 29.7786C57.6164 29.5362 57.5441 29.252 57.5621 28.9662C57.5706 28.656 57.6055 28.347 57.6666 28.0428C57.7538 27.531 57.9324 26.6337 58.418 26.1916C58.9037 25.7494 59.6398 25.7037 60.1908 25.7059C60.7419 25.7081 61.4845 25.7799 61.7393 26.1589C61.8818 26.4016 61.9479 26.6817 61.9288 26.9625C61.9211 27.2962 61.884 27.6285 61.8177 27.9557V27.9622Z" fill="#959CAE"/>
<path d="M71.7577 27.6831L74.2536 25.662C74.3101 25.6266 74.3587 25.58 74.3965 25.5251C74.4343 25.4701 74.4604 25.408 74.4733 25.3426C74.4861 25.2772 74.4854 25.2098 74.4712 25.1446C74.457 25.0795 74.4296 25.0179 74.3907 24.9638C74.3517 24.9097 74.3021 24.8641 74.2449 24.8299C74.1877 24.7956 74.124 24.7735 74.0579 24.7649C73.9918 24.7562 73.9246 24.7612 73.8605 24.7795C73.7964 24.7979 73.7367 24.8291 73.6851 24.8714L71.1108 26.9252C70.9739 27.0363 70.8457 27.1579 70.7275 27.2889L71.0608 25.4007C71.0684 25.3634 71.0728 25.3255 71.0738 25.2874C71.074 25.157 71.0254 25.0312 70.9376 24.9347C70.8498 24.8383 70.7291 24.7781 70.5992 24.7661C70.4694 24.7541 70.3397 24.7911 70.2357 24.8698C70.1317 24.9486 70.0609 25.0633 70.0371 25.1916L69.0876 30.5688C69.0853 30.5986 69.0853 30.6284 69.0876 30.6581C69.0868 30.7888 69.135 30.9149 69.2226 31.0118C69.3103 31.1087 69.431 31.1692 69.5611 31.1815C69.6911 31.1938 69.8211 31.157 69.9253 31.0782C70.0295 30.9995 70.1005 30.8846 70.1243 30.7561L70.5337 28.4367C70.592 28.5498 70.6653 28.6545 70.7515 28.7481L72.7116 30.963C72.7574 31.0184 72.8136 31.0642 72.877 31.0978C72.9405 31.1314 73.01 31.1522 73.0814 31.159C73.1529 31.1657 73.2251 31.1584 73.2937 31.1373C73.3623 31.1162 73.4262 31.0818 73.4815 31.036C73.5368 30.9902 73.5826 30.934 73.6162 30.8706C73.6499 30.8071 73.6707 30.7377 73.6774 30.6662C73.6842 30.5947 73.6768 30.5226 73.6557 30.4539C73.6346 30.3853 73.6002 30.3215 73.5545 30.2661L71.5943 28.0512C71.5775 28.0271 71.563 28.0016 71.5508 27.975C71.5428 27.9606 71.537 27.9452 71.5334 27.9292C71.5334 27.9292 71.5334 27.9292 71.5334 27.9183L71.5442 27.9009C71.6068 27.8203 71.6784 27.7472 71.7577 27.6831Z" fill="#959CAE"/>
<path d="M85.6157 25.1568C85.5383 25.024 85.4241 24.9165 85.2869 24.8473C85.1497 24.7781 84.9953 24.7502 84.8426 24.7669H81.5931C81.4378 24.7587 81.2826 24.7851 81.1387 24.8443C80.9948 24.9034 80.8658 24.9938 80.7612 25.1088C80.6066 25.3191 80.5098 25.5661 80.4802 25.8254L79.6439 30.5689C79.6416 30.5979 79.6416 30.627 79.6439 30.656C79.6437 30.7864 79.6923 30.9122 79.7801 31.0087C79.8679 31.1051 79.9886 31.1652 80.1185 31.1773C80.2484 31.1893 80.3781 31.1523 80.4821 31.0735C80.5861 30.9948 80.6569 30.8801 80.6806 30.7518L81.53 25.9169C81.536 25.8739 81.5462 25.8316 81.5605 25.7905H81.5714H81.5953H84.6074C84.6086 25.8101 84.6086 25.8298 84.6074 25.8493L83.7732 30.6015C83.7711 30.6276 83.7711 30.6538 83.7732 30.6799C83.772 30.8118 83.8207 30.9393 83.9095 31.0368C83.9983 31.1343 84.1208 31.1947 84.2522 31.2057C84.3837 31.2167 84.5144 31.1776 84.6182 31.0963C84.7221 31.0149 84.7913 30.8973 84.8121 30.7671L85.6527 25.9169C85.6761 25.7933 85.6893 25.668 85.692 25.5423C85.6967 25.4096 85.6706 25.2776 85.6157 25.1568Z" fill="#959CAE"/>
<path d="M79.8442 25.2635C79.8442 25.1306 79.7915 25.0032 79.6975 24.9093C79.6036 24.8153 79.4762 24.7625 79.3433 24.7625H77.6489C76.8797 24.7366 76.1273 24.9912 75.532 25.4791C74.7174 26.1869 74.5018 27.1953 74.3581 28.0055C74.2839 28.3742 74.2423 28.7488 74.234 29.1249C74.2185 29.5458 74.3301 29.9617 74.5541 30.3184C74.8655 30.7954 75.4579 31.1765 76.3509 31.1765H78.5288C78.5946 31.1765 78.6597 31.1635 78.7205 31.1384C78.7813 31.1132 78.8365 31.0763 78.883 31.0298C78.9295 30.9833 78.9664 30.928 78.9916 30.8673C79.0167 30.8065 79.0297 30.7413 79.0297 30.6756C79.0297 30.6098 79.0167 30.5446 78.9916 30.4839C78.9664 30.4231 78.9295 30.3679 78.883 30.3214C78.8365 30.2748 78.7813 30.238 78.7205 30.2128C78.6597 30.1876 78.5946 30.1746 78.5288 30.1746H76.756C76.4737 30.1822 76.1925 30.1379 75.9262 30.044C75.7965 29.9994 75.6798 29.9233 75.5867 29.8226C75.4936 29.7219 75.4269 29.5996 75.3926 29.4668C75.3664 29.3393 75.3547 29.2093 75.3578 29.0792C75.3616 28.7732 75.39 28.468 75.4427 28.1666C75.5243 27.7125 75.6386 27.2649 75.7846 26.8272C75.9269 26.4964 76.1669 26.2171 76.4725 26.0267C76.7781 25.8363 77.1347 25.744 77.4943 25.7622H79.3477C79.4794 25.7611 79.6054 25.7081 79.6983 25.6147C79.7912 25.5214 79.8437 25.3952 79.8442 25.2635Z" fill="#959CAE"/>
<path d="M109 25.2635C109 25.1978 108.988 25.1327 108.963 25.0719C108.938 25.0112 108.901 24.9559 108.855 24.9094C108.808 24.8628 108.753 24.8259 108.693 24.8007C108.632 24.7755 108.567 24.7625 108.501 24.7625H106.822C106.052 24.7366 105.299 24.9913 104.703 25.4791C103.888 26.1869 103.675 27.1953 103.529 28.0054C103.457 28.3744 103.416 28.7489 103.407 29.1249C103.392 29.5458 103.503 29.9617 103.727 30.3184C104.036 30.7953 104.629 31.1765 105.524 31.1765H107.702C107.768 31.1765 107.833 31.1635 107.894 31.1383C107.954 31.1132 108.01 31.0763 108.056 31.0298C108.103 30.9832 108.139 30.928 108.165 30.8673C108.19 30.8065 108.203 30.7413 108.203 30.6756C108.203 30.6098 108.19 30.5446 108.165 30.4839C108.139 30.4231 108.103 30.3679 108.056 30.3214C108.01 30.2748 107.954 30.2379 107.894 30.2128C107.833 30.1876 107.768 30.1746 107.702 30.1746H105.931C105.642 30.1882 105.354 30.1476 105.08 30.0549C104.95 30.0105 104.834 29.9344 104.741 29.8337C104.648 29.7329 104.582 29.6105 104.548 29.4777C104.522 29.3502 104.51 29.2202 104.513 29.09C104.518 28.7842 104.545 28.4791 104.596 28.1775C104.678 27.7231 104.793 27.2754 104.94 26.8381C105.082 26.5071 105.322 26.2276 105.628 26.0372C105.934 25.8468 106.29 25.7546 106.65 25.7731H108.503C108.57 25.7728 108.635 25.7594 108.696 25.7335C108.757 25.7076 108.812 25.6699 108.858 25.6224C108.905 25.575 108.941 25.5188 108.965 25.4572C108.99 25.3955 109.001 25.3297 109 25.2635Z" fill="#959CAE"/>
<path d="M103.773 25.2635C103.773 25.1977 103.76 25.1326 103.735 25.0718C103.71 25.011 103.673 24.9558 103.626 24.9093C103.58 24.8628 103.524 24.8259 103.464 24.8007C103.403 24.7756 103.338 24.7626 103.272 24.7626H101.578C100.808 24.7363 100.054 24.991 99.4585 25.4791C98.6439 26.1869 98.4305 27.1953 98.2867 28.0055C98.2125 28.3743 98.171 28.7489 98.1626 29.1249C98.1472 29.5459 98.2587 29.9617 98.4828 30.3184C98.792 30.7954 99.3866 31.1765 100.28 31.1765H102.457C102.523 31.1765 102.588 31.1636 102.649 31.1384C102.71 31.1132 102.765 31.0763 102.812 31.0298C102.858 30.9833 102.895 30.9281 102.92 30.8673C102.945 30.8065 102.958 30.7414 102.958 30.6756C102.958 30.6098 102.945 30.5447 102.92 30.4839C102.895 30.4231 102.858 30.3679 102.812 30.3214C102.765 30.2749 102.71 30.238 102.649 30.2128C102.588 30.1876 102.523 30.1747 102.457 30.1747H100.687C100.404 30.1824 100.122 30.1381 99.8548 30.044C99.7256 29.9989 99.6095 29.9227 99.5168 29.822C99.4241 29.7213 99.3577 29.5994 99.3234 29.4669C99.2972 29.3394 99.2856 29.2093 99.2886 29.0792C99.2924 28.7732 99.3208 28.4681 99.3735 28.1667C99.4541 27.7123 99.5684 27.2646 99.7155 26.8273C99.8574 26.4963 100.097 26.2168 100.403 26.0264C100.709 25.8359 101.065 25.7438 101.425 25.7623H103.279C103.41 25.7605 103.535 25.7073 103.628 25.614C103.72 25.5207 103.772 25.3949 103.773 25.2635Z" fill="#959CAE"/>
</svg>
