<svg width="22" height="22" viewBox="0 0 22 22" fill="none" xmlns="http://www.w3.org/2000/svg">
<path d="M16.8145 1.71875C17.7336 1.71977 18.6148 2.08534 19.2647 2.73526C19.9147 3.38517 20.2802 4.26635 20.2812 5.18547V16.8145C20.2802 17.7336 19.9147 18.6148 19.2647 19.2647C18.6148 19.9147 17.7336 20.2802 16.8145 20.2812H5.18547C4.26635 20.2802 3.38517 19.9147 2.73526 19.2647C2.08534 18.6148 1.71977 17.7336 1.71875 16.8145V5.18547C1.71977 4.26635 2.08534 3.38517 2.73526 2.73526C3.38517 2.08534 4.26635 1.71977 5.18547 1.71875H16.8145ZM16.8145 0H5.18547C3.8102 0 2.49125 0.546325 1.51879 1.51879C0.546325 2.49125 0 3.8102 0 5.18547L0 16.8145C0 18.1898 0.546325 19.5087 1.51879 20.4812C2.49125 21.4537 3.8102 22 5.18547 22H16.8145C18.1898 22 19.5087 21.4537 20.4812 20.4812C21.4537 19.5087 22 18.1898 22 16.8145V5.18547C22 3.8102 21.4537 2.49125 20.4812 1.51879C19.5087 0.546325 18.1898 0 16.8145 0Z" fill="white"/>
<path d="M16.2852 12.0889C16.08 12.0889 15.8833 12.1704 15.7383 12.3154C15.5932 12.4604 15.5117 12.6572 15.5117 12.8623V13.5137C15.5109 14.0141 15.3118 14.4938 14.958 14.8476C14.6041 15.2014 14.1245 15.4005 13.6241 15.4013H8.37332C7.87294 15.4005 7.39328 15.2014 7.03945 14.8476C6.68563 14.4938 6.4865 14.0141 6.4857 13.5137V12.861C6.47431 12.6639 6.388 12.4787 6.24444 12.3432C6.10089 12.2077 5.91096 12.1322 5.71355 12.1322C5.51615 12.1322 5.32622 12.2077 5.18267 12.3432C5.03911 12.4787 4.9528 12.6639 4.94141 12.861V13.5124C4.94288 14.4222 5.30493 15.2942 5.94822 15.9375C6.59151 16.5808 7.46357 16.9429 8.37332 16.9443H13.6267C14.5364 16.9429 15.4085 16.5808 16.0518 15.9375C16.6951 15.2942 17.0571 14.4222 17.0586 13.5124V12.861C17.0583 12.6561 16.9766 12.4597 16.8316 12.3149C16.6866 12.1702 16.4901 12.0889 16.2852 12.0889Z" fill="white"/>
<path d="M9.7392 10.2395L10.2415 10.7418V5.78752C10.2529 5.59045 10.3392 5.40519 10.4828 5.26969C10.6263 5.1342 10.8163 5.05872 11.0137 5.05872C11.2111 5.05872 11.401 5.1342 11.5445 5.26969C11.6881 5.40519 11.7744 5.59045 11.7858 5.78752V10.7418L12.2744 10.2533C12.3439 10.1732 12.4292 10.1083 12.5249 10.0626C12.6206 10.0169 12.7247 9.99132 12.8307 9.98755C12.9367 9.98378 13.0424 10.0019 13.1411 10.0406C13.2398 10.0794 13.3295 10.1381 13.4046 10.2131C13.4797 10.288 13.5385 10.3776 13.5775 10.4762C13.6165 10.5748 13.6348 10.6805 13.6312 10.7865C13.6277 10.8925 13.6024 10.9966 13.5568 11.0924C13.5113 11.1882 13.4466 11.2737 13.3666 11.3434L11.5585 13.1524L11.5512 13.1592L11.5405 13.1696L11.5087 13.1975L11.5031 13.2026C11.4893 13.2138 11.4756 13.2246 11.4601 13.2344L11.4545 13.2383C11.4243 13.2594 11.3927 13.2785 11.36 13.2954C11.3258 13.3123 11.2905 13.3266 11.2543 13.3384H11.2508C11.2167 13.3497 11.1818 13.3584 11.1464 13.3646H11.1357C11.1194 13.3672 11.1026 13.3698 11.0858 13.3715L11.039 13.3745H11.0253C11.0089 13.3745 10.9926 13.3745 10.9767 13.3745H10.972C10.9561 13.3745 10.941 13.3745 10.9256 13.3702H10.9148C10.8803 13.3658 10.8461 13.3591 10.8126 13.35H10.8074C10.7725 13.3402 10.7383 13.328 10.7051 13.3135H10.703C10.6696 13.2987 10.6373 13.2816 10.6063 13.2624L10.6016 13.2594C10.5716 13.2402 10.5429 13.2191 10.5156 13.1962C10.5124 13.1939 10.5094 13.1913 10.5066 13.1885C10.4937 13.1773 10.4808 13.1657 10.4684 13.1532L8.6478 11.3326C8.5697 11.2624 8.50672 11.177 8.4627 11.0817C8.41868 10.9863 8.39454 10.883 8.39175 10.778C8.38897 10.673 8.40759 10.5686 8.44649 10.471C8.48539 10.3735 8.54375 10.2849 8.61801 10.2106C8.69228 10.1363 8.78089 10.078 8.87844 10.0391C8.976 10.0002 9.08045 9.98154 9.18544 9.98433C9.29043 9.98711 9.39375 10.0113 9.4891 10.0553C9.58445 10.0993 9.66984 10.1623 9.74006 10.2404L9.7392 10.2395Z" fill="white"/>
</svg>
