<svg width="15" height="24" viewBox="0 0 15 24" fill="none" xmlns="http://www.w3.org/2000/svg">
<path d="M13.1196 23.8474C14.1566 23.8474 15 23.0036 15 21.967V1.88037C15 0.843402 14.1562 0 13.1196 0H1.88037C0.843402 0 0 0.8438 0 1.88037V21.9666C0 23.0036 0.8438 23.847 1.88037 23.847L13.1196 23.8474ZM0.794515 21.967V1.88037C0.794515 1.2818 1.2814 0.794913 1.87997 0.794913H13.1192C13.7178 0.794913 14.2047 1.2818 14.2047 1.88037V21.9666C14.2047 22.5652 13.7178 23.0521 13.1192 23.0521H1.87997C1.2814 23.0521 0.794515 22.5656 0.794515 21.967Z" fill="#B1CAFA"/>
<path d="M6.13134 2.35531H8.86942C9.08882 2.35531 9.26688 2.17725 9.26688 1.95785C9.26688 1.73845 9.08882 1.56039 8.86942 1.56039H6.13134C5.91195 1.56039 5.73389 1.73845 5.73389 1.95785C5.73389 2.17725 5.91195 2.35531 6.13134 2.35531Z" fill="#B1CAFA"/>
<path d="M9.31092 21.4479H5.68969C5.4703 21.4479 5.29224 21.626 5.29224 21.8454C5.29224 22.0648 5.4703 22.2428 5.68969 22.2428H9.31092C9.53031 22.2428 9.70837 22.0648 9.70837 21.8454C9.70837 21.626 9.53031 21.4479 9.31092 21.4479Z" fill="#B1CAFA"/>
<path d="M5.11633 13.9527C6.20178 15.0381 7.4951 15.8223 8.85639 16.2206C9.09924 16.2917 9.34646 16.3263 9.59208 16.3263C10.2733 16.3263 10.9383 16.0596 11.4327 15.5648L11.9267 15.0707C12.1402 14.8573 12.2578 14.5739 12.2578 14.2722C12.2578 13.9706 12.1402 13.6868 11.9267 13.4738L10.7288 12.2758C10.3023 11.8494 9.5579 11.8494 9.13183 12.2758L8.59367 12.814C8.4184 12.9893 8.13302 12.9893 7.95735 12.814L6.25584 11.1125C6.17078 11.0274 6.12388 10.9141 6.12388 10.7941C6.12388 10.6741 6.17078 10.5612 6.25584 10.4761L6.79399 9.93798C7.23437 9.4976 7.23437 8.78139 6.79399 8.34101L5.59606 7.14267C5.15568 6.70309 4.43906 6.70269 3.99868 7.14267L3.50464 7.63671C2.83215 8.30921 2.58095 9.29609 2.84884 10.2126C3.24709 11.5739 4.03088 12.8672 5.11633 13.9527ZM4.06665 8.19872L4.56068 7.70468C4.62587 7.63949 4.71172 7.6069 4.79717 7.6069C4.88262 7.6069 4.96847 7.63949 5.03366 7.70468L6.23159 8.90301C6.29479 8.9662 6.32976 9.05007 6.32976 9.1395C6.32976 9.22892 6.29479 9.31279 6.23159 9.37598L5.69344 9.91414C5.45854 10.149 5.32897 10.4614 5.32897 10.7937C5.32897 11.1264 5.45814 11.4396 5.69344 11.6745L7.39495 13.376C7.86514 13.8466 8.68509 13.8466 9.15528 13.376L9.69383 12.8378C9.81983 12.7114 10.04 12.7118 10.1664 12.8378L11.3643 14.0358C11.4275 14.099 11.4625 14.1832 11.4625 14.2722C11.4625 14.3613 11.4279 14.4455 11.3643 14.5087L10.8703 15.0028C10.4029 15.4698 9.71649 15.6439 9.07937 15.4575C7.84566 15.097 6.66999 14.3823 5.67833 13.3907C4.68668 12.399 3.97245 11.2234 3.61156 9.98965C3.42515 9.35213 3.59963 8.66573 4.06665 8.19872Z" fill="#B1CAFA"/>
</svg>
