<svg width="96" height="20" viewBox="0 0 96 20" fill="none" xmlns="http://www.w3.org/2000/svg">
<g clip-path="url(#clip0_230_518)">
<path d="M0 20H96V16.7533H0V20Z" fill="white"/>
<path d="M8.32238 1.23978e-05V9.67969H5.99123V1.79534H2.32513V9.67969H0V1.23978e-05H8.32238Z" fill="white"/>
<path d="M16.7671 2.65709V9.67968H14.4419V4.32203H12.8203V5.61467C12.8203 7.31551 12.6059 8.51743 11.764 9.14863C11.291 9.62298 10.6315 9.83842 9.59121 9.83842L9.33264 8.13758C9.64823 8.09941 9.94256 7.96695 10.1725 7.75962C10.6014 7.34385 10.6636 6.68241 10.6636 5.50505V2.65709H16.7671Z" fill="white"/>
<path d="M24.8449 7.98451C24.8287 8.55382 24.8696 9.1233 24.9672 9.68535H22.8705L22.7322 8.98233H22.6861C22.197 9.54928 21.4334 9.84409 20.5454 9.84409C19.03 9.84409 18.1281 8.81036 18.1281 7.68969C18.1281 5.86602 19.8719 5.00425 22.5177 5.00425V4.91732C22.5177 4.52991 22.3053 3.99698 21.1567 3.99698C20.4314 4.00443 19.7204 4.18798 19.0922 4.52991L18.6632 3.12199C19.5623 2.68934 20.5604 2.47191 21.5697 2.4889C24.0632 2.4889 24.8449 3.86847 24.8449 5.53529V7.98451ZM22.5959 6.36303C21.3712 6.36303 20.4231 6.63517 20.4231 7.46858C20.4231 8.03553 20.824 8.302 21.3411 8.302C21.605 8.30022 21.8618 8.22204 22.077 8.07803C22.2921 7.93403 22.455 7.73117 22.5438 7.49693C22.5752 7.37314 22.5907 7.24624 22.5899 7.11896L22.5959 6.36303Z" fill="white"/>
<path d="M32.4156 2.65709V4.33714H30.2448V9.67968H27.9176V4.33714H25.7468V2.65709H32.4156Z" fill="white"/>
<path d="M38.9781 1.47406L38.948 2.53047C41.0687 2.74213 42.8727 3.94973 42.8727 6.19862C42.8727 8.48342 41.0066 9.66078 38.94 9.81952L38.9701 12.5333H36.7913L36.8213 9.81952C34.7267 9.6759 32.8746 8.4683 32.8746 6.22886C32.8746 3.92894 34.6947 2.75158 36.8073 2.55126L36.7893 1.47973L38.9781 1.47406ZM36.8213 3.94973C35.6888 4.20675 35.1697 5.08363 35.1697 6.17594C35.1697 7.29661 35.7049 8.14325 36.8213 8.38703V3.94973ZM38.934 8.38703C40.0505 8.12813 40.5857 7.28149 40.5857 6.16082C40.5857 5.08362 40.0645 4.22187 38.934 3.96296V8.38703Z" fill="white"/>
<path d="M51.7062 6.08901C51.7062 8.66106 49.7639 9.83842 47.7595 9.83842C45.5706 9.83842 43.8889 8.48719 43.8889 6.21941C43.8889 3.95162 45.4804 2.48323 47.8978 2.48323C50.1768 2.48323 51.7062 3.96296 51.7062 6.08901ZM46.2942 6.16082C46.2942 7.36842 46.8294 8.27176 47.8236 8.27176C48.7416 8.27176 49.3089 7.42512 49.3089 6.1476C49.3089 5.11197 48.8799 4.04989 47.8236 4.04989C46.7192 4.04989 46.2902 5.12709 46.2902 6.16082H46.2942Z" fill="white"/>
<path d="M53.1434 5.01181C53.1434 4.09336 53.1133 3.31097 53.0833 2.65709H55.0997L55.2079 3.63224H55.238C55.7892 2.90088 56.6411 2.49835 57.7315 2.49835C59.3691 2.49835 60.8364 3.83445 60.8364 6.07578C60.8364 8.63082 59.1086 9.83842 57.4409 9.83842C56.5389 9.83842 55.8373 9.49258 55.4986 9.03335H55.4665V12.5239H53.1414L53.1434 5.01181ZM55.4685 6.66352C55.4675 6.81766 55.483 6.97152 55.5146 7.12275C55.5837 7.41546 55.7562 7.67737 56.0038 7.86554C56.2515 8.0537 56.5596 8.15695 56.8776 8.15837C57.8798 8.15837 58.4812 7.36842 58.4812 6.17594C58.4812 5.05528 57.946 4.20675 56.9057 4.20675C56.5749 4.2156 56.257 4.32993 56.004 4.53106C55.751 4.7322 55.5778 5.00826 55.5126 5.31418C55.4817 5.44125 55.4662 5.57123 55.4665 5.7016L55.4685 6.66352Z" fill="white"/>
<path d="M62.5161 2.65709H65.4847L66.2864 5.31418C66.4087 5.72995 66.6232 6.44808 66.7755 7.08117H66.8216C66.9599 6.60683 67.2045 5.83011 67.4229 5.15544L68.2488 2.65709H71.1873L71.6463 9.67968H69.4815L69.3592 6.86573C69.3452 6.26098 69.2991 5.24237 69.2831 4.40896H69.237C68.9463 5.34253 68.9002 5.57309 68.5194 6.70698L67.5172 9.5644H65.8194L64.9334 6.7788C64.733 6.11736 64.4885 5.11197 64.3201 4.45243H64.26C64.2279 5.32741 64.2139 6.31957 64.1838 6.9092L64.0615 9.68156H61.9869L62.5161 2.65709Z" fill="white"/>
<path d="M75.4165 2.65709V4.81149C75.4165 5.93216 75.3564 6.7221 75.2942 7.6689L75.3564 7.68402C75.7071 6.87895 75.9056 6.3328 76.2122 5.67325L77.6655 2.64953H80.5117V9.67212H78.3069V7.5404C78.3069 6.44808 78.367 5.98885 78.4432 4.51668H78.383C78.0924 5.27261 77.908 5.7375 77.6033 6.4065C77.1283 7.38354 76.563 8.60436 76.0419 9.69479H73.2136V2.65709H75.4165Z" fill="white"/>
<path d="M84.687 2.65709V5.45781H84.9315L86.8297 2.65709H89.5377L86.7836 5.68081C87.6696 5.82444 88.2368 6.58604 88.6638 7.60654C88.9244 8.17349 89.201 9.01446 89.5678 9.67401H87.1344C86.934 9.37353 86.7516 8.87083 86.4609 8.12246C86.1402 7.31928 85.6592 6.8884 84.9175 6.8884H84.687V9.67401H82.3599V2.65709H84.687Z" fill="white"/>
<path d="M95.9779 9.49258C95.565 9.68156 94.7753 9.8233 93.8973 9.8233C91.48 9.8233 89.9346 8.4305 89.9346 6.23264C89.9346 4.1784 91.4339 2.49835 94.218 2.49835C94.8213 2.49539 95.4208 2.58736 95.9919 2.77048L95.6251 4.39384C95.2121 4.23771 94.769 4.16434 94.3243 4.1784C93.1016 4.1784 92.3058 4.99858 92.3198 6.1476C92.3198 7.42512 93.2359 8.1149 94.3684 8.1149C94.8242 8.12591 95.2774 8.04739 95.6993 7.88435L95.9779 9.49258Z" fill="white"/>
</g>
<defs>
<clipPath id="clip0_230_518">
<rect width="96" height="20" fill="white"/>
</clipPath>
</defs>
</svg>
