<svg width="41" height="41" viewBox="0 0 41 41" fill="none" xmlns="http://www.w3.org/2000/svg">
<path d="M35.4091 0H5.59091C2.50314 0 0 2.50314 0 5.59091V35.4091C0 38.4969 2.50314 41 5.59091 41H35.4091C38.4969 41 41 38.4969 41 35.4091V5.59091C41 2.50314 38.4969 0 35.4091 0Z" fill="#4169E1"/>
<path d="M32.3154 27.824C31.719 27.9079 28.8024 27.824 28.651 27.824C27.8971 27.8337 27.1697 27.5457 26.6267 27.0227C26.0117 26.431 25.4619 25.7787 24.8609 25.159C24.6831 24.9709 24.4907 24.7972 24.2855 24.6396C23.8056 24.2692 23.3303 24.353 23.1044 24.9191C22.9278 25.5308 22.8047 26.1567 22.7363 26.7897C22.6967 27.3628 22.3333 27.7215 21.6903 27.7611C21.292 27.7821 20.8936 27.7891 20.4999 27.7798C19.0652 27.7706 17.653 27.4217 16.379 26.7618C15.0005 25.9936 13.7995 24.9435 12.8544 23.6798C11.3006 21.695 10.0589 19.5146 8.95006 17.2665C8.89182 17.1547 7.755 14.7367 7.72705 14.6225C7.62455 14.2405 7.72705 13.8747 8.04154 13.7489C8.24188 13.6721 11.9878 13.7489 12.0507 13.7489C12.3292 13.7465 12.6012 13.8328 12.8274 13.9953C13.0535 14.1578 13.2221 14.3881 13.3086 14.6528C14.0011 16.4259 14.9492 18.0881 16.1227 19.5868C16.287 19.7872 16.4792 19.9629 16.6935 20.1086C16.9986 20.3159 17.2875 20.2437 17.4133 19.8919C17.5624 19.4039 17.65 18.8991 17.6742 18.3894C17.6952 17.3784 17.6742 16.7121 17.6183 15.7034C17.581 15.0558 17.3527 14.4874 16.3976 14.3057C16.1041 14.2544 16.0785 14.0122 16.2672 13.7699C16.6609 13.2667 17.199 13.1875 17.8023 13.1572C18.7015 13.106 19.6007 13.1409 20.4999 13.1572H20.6956C21.087 13.1558 21.4774 13.1956 21.8604 13.276C22.0868 13.3218 22.2924 13.4395 22.4464 13.6117C22.6005 13.7838 22.6948 14.0011 22.7153 14.2311C22.7614 14.4863 22.7809 14.7454 22.7736 15.0046C22.7503 16.1088 22.6967 17.2106 22.6851 18.3148C22.6743 18.752 22.7142 19.189 22.8039 19.6171C22.932 20.2041 23.335 20.3509 23.7357 19.9269C24.2545 19.3788 24.7304 18.7916 25.159 18.1704C25.917 17.0383 26.5423 15.8229 27.0227 14.548C27.2836 13.8934 27.4886 13.7489 28.1874 13.7489H32.1617C32.398 13.7448 32.6335 13.7762 32.8605 13.8421C32.9409 13.8632 33.016 13.9007 33.0811 13.9522C33.1463 14.0037 33.2002 14.068 33.2393 14.1413C33.2785 14.2146 33.3021 14.2951 33.3086 14.3779C33.3152 14.4607 33.3046 14.544 33.2775 14.6225C33.0818 15.4938 32.6113 16.2369 32.1127 16.9521C31.3044 18.0982 30.4518 19.214 29.6248 20.3415C29.5202 20.4911 29.4245 20.6466 29.3382 20.8074C29.0261 21.3689 29.0494 21.6834 29.5013 22.1516C30.2235 22.8924 30.9945 23.5889 31.6911 24.353C32.2025 24.9085 32.664 25.508 33.0702 26.1444C33.5803 26.9342 33.2659 27.6889 32.3154 27.824Z" fill="white"/>
</svg>
